<?xml version="1.0" encoding="UTF-8"?>
<svg id="Capa_1" xmlns="http://www.w3.org/2000/svg" viewBox="0 0 144.62 135.01">
  <defs>
    <style>
      .cls-1 {
        fill: #f6f6f6;
      }
    </style>
  </defs>
  <path class="cls-1" d="M134.18,50.1h-31.71l15.86-27.47c2.88-5,1.17-11.38-3.82-14.27l-12.06-6.96c-5-2.88-11.38-1.17-14.27,3.82l-15.86,27.46-15.86-27.46c-2.88-5-9.27-6.71-14.27-3.82l-12.06,6.96c-5,2.88-6.71,9.27-3.82,14.27l15.86,27.47H10.44c-5.77,0-10.44,4.68-10.44,10.44v13.93c0,5.77,4.68,10.44,10.44,10.44h31.71l-15.86,27.46c-2.88,5-1.17,11.38,3.82,14.27l12.06,6.96c5,2.88,11.38,1.17,14.27-3.82l15.86-27.46,15.86,27.46c2.88,5,9.27,6.71,14.27,3.82l12.06-6.96c5-2.88,6.71-9.27,3.82-14.27l-15.86-27.46h31.71c5.77,0,10.44-4.68,10.44-10.44v-13.93c0-5.77-4.68-10.44-10.44-10.44Z"/>
</svg>