<?xml version="1.0" encoding="UTF-8"?>
<svg id="Capa_1" xmlns="http://www.w3.org/2000/svg" viewBox="0 0 124.23 192.7">
  <defs>
    <style>
      .cls-1 {
        fill: #f6f6f6;
      }
    </style>
  </defs>
  <path class="cls-1" d="M92.92,192.7c-.28,0-.54,0-.81-.01-8.04-.2-15.62-3.46-21.33-9.16-5.91-5.91-9.17-13.77-9.17-22.14v-14.62c0-8.65-7.04-15.68-15.69-15.68h-29.24C7.49,131.08.01,123.6.01,114.4V31.29C0,14.04,14.04,0,31.29,0s31.31,14.04,31.31,31.29v83.1c.01,8.65,7.05,15.69,15.7,15.69h27.79c10,0,18.14,8.14,18.14,18.14v13.17c0,17.12-13.39,30.86-30.49,31.29-.26.01-.53.01-.81.01ZM92.92,191.7c.26,0,.53,0,.78-.01,16.56-.42,29.53-13.72,29.53-30.3v-13.17c0-9.45-7.69-17.14-17.14-17.14h-27.79c-9.2,0-16.69-7.49-16.69-16.69V31.29c-.01-16.71-13.61-30.29-30.32-30.29S1,14.59,1,31.29v83.1c.01,8.65,7.04,15.69,15.68,15.69h29.24c9.2,0,16.69,7.48,16.69,16.68v14.62c0,8.1,3.15,15.71,8.88,21.43,5.53,5.52,12.87,8.67,20.66,8.86.26.01.52.03.78.01Z"/>
</svg>