<?xml version="1.0" encoding="UTF-8"?>
<svg id="Capa_1" xmlns="http://www.w3.org/2000/svg" viewBox="0 0 177.25 177.29">
  <defs>
    <style>
      .cls-1 {
        fill: #f6f6f6;
      }
    </style>
  </defs>
  <path class="cls-1" d="M166.14,177.29h-37.54c-6.13,0-11.11-4.98-11.11-11.11v-38.29c-.36-5.24-4.79-9.37-10.07-9.37h-37.54c-5.57,0-10.11,4.54-10.11,10.11v37.54c0,6.13-4.98,11.11-11.11,11.11H11.11c-6.13,0-11.11-4.98-11.11-11.11v-37.54c0-6.13,4.98-11.11,11.11-11.11h37.54c5.47,0,9.9-4.29,10.09-9.76v-.1c-.01-.08-.02-.17-.02-.25v-38.29c-.36-5.24-4.79-9.37-10.07-9.37H11.11c-6.13,0-11.11-4.98-11.11-11.11V11.11C0,4.98,4.98,0,11.11,0h37.54c6.13,0,11.11,4.98,11.11,11.11v37.54c0,5.58,4.54,10.11,10.11,10.11h37.54c5.28,0,9.71-4.13,10.07-9.4V11.11c0-6.13,4.98-11.11,11.11-11.11h37.54c6.13,0,11.11,4.98,11.11,11.11v37.54c0,6.13-4.98,11.11-11.11,11.11h-37.5c-5.57,0-10.11,4.54-10.11,10.11v37.54c0,5.57,4.54,10.11,10.11,10.11h37.5c6.13,0,11.11,4.98,11.11,11.11v37.54c0,6.13-4.98,11.11-11.11,11.11ZM69.87,117.52h37.5c5.84,0,10.71,4.54,11.11,10.33v38.32c0,5.57,4.54,10.11,10.11,10.11h37.54c5.57,0,10.11-4.54,10.11-10.11v-37.54c0-5.57-4.54-10.11-10.11-10.11h-37.5c-5.96,0-10.84-4.71-11.1-10.61h-.01l-.04-.5v-38.04h.05c.26-5.89,5.14-10.61,11.1-10.61h37.5c5.57,0,10.11-4.54,10.11-10.11V11.11c0-5.57-4.54-10.11-10.11-10.11h-37.54c-5.57,0-10.11,4.54-10.11,10.11v38.29c-.4,5.83-5.27,10.37-11.07,10.37h-37.54c-6.13,0-11.11-4.98-11.11-11.11V11.11c0-5.57-4.54-10.11-10.11-10.11H11.11C5.54,1,1,5.54,1,11.11v37.54c0,5.58,4.54,10.11,10.11,10.11h37.54c5.81,0,10.67,4.54,11.07,10.33v38.32c0,.06,0,.12,0,.18v.17c-.2,6.05-5.07,10.76-11.08,10.76H11.11c-5.57,0-10.11,4.54-10.11,10.11v37.54c0,5.57,4.54,10.11,10.11,10.11h37.54c5.57,0,10.11-4.54,10.11-10.11v-37.54c0-6.13,4.98-11.11,11.11-11.11Z"/>
</svg>